# xmcd
# 
# Track frame offsets:
#     150
#     19650
#     45037
#     68630
#     84877
#     111492
#     126327
#     149785
#     184910
#     207245
#     227342
#     248567
#     281960
# 
# Disc length: 4123
# 
# Revision: 2
# Processed by: cddbd v1.5.2PL0 Copyright (c) Steve Scherf et al.
# Submitted via: BonkEnc v1.0.8
# 
DISCID=b410190d
DTITLE=Per Henrik Wallin - Deep In A Dream
DYEAR=1985
DGENRE=Jazz
TTITLE0=I Guess I'll Have To Change My Plans
TTITLE1=Stairway To The Stars
TTITLE2=A Ghost Of A Chance
TTITLE3=I Didn't Know What Time It Was
TTITLE4=At Last
TTITLE5=Memories Of You
TTITLE6=You Don't Know What Love Is
TTITLE7=P H's Blues
TTITLE8=It's The Talk Of The Town
TTITLE9=Deep In Dream
TTITLE10=Mingelin 5
TTITLE11=Body An Soul/vättern/this Nearly Was Mine
TTITLE12=Monk's Mood
EXTD=YEAR: 1985
EXTT0=
EXTT1=
EXTT2=
EXTT3=
EXTT4=
EXTT5=
EXTT6=
EXTT7=
EXTT8=
EXTT9=
EXTT10=
EXTT11=
EXTT12=
PLAYORDER=
